STARTFONT 2.1
FONT -URW-ITC Bookman-Light-R-Normal--10-100-72-72-P-57-ISO8859-1
SIZE 10 72 72
FONTBOUNDINGBOX 16 12 -3 -2

STARTPROPERTIES 22
FONTNAME_REGISTRY "-"
FOUNDRY "URW"
FAMILY_NAME "ITC Bookman"
WEIGHT_NAME "Light"
SLANT "R"
SETWIDTH_NAME "Normal"
ADD_STYLE_NAME ""
PIXEL_SIZE 10
POINT_SIZE 100
RESOLUTION_X 72
RESOLUTION_Y 72
SPACING "P"
CHARSET_REGISTRY "ISO8859"
CHARSET_ENCODING "1"
FULL_NAME "Bookman-Light"
AVERAGE_WIDTH 57
WEIGHT 10
X_HEIGHT 6
QUAD_WIDTH 7
DEFAULT_CHAR 32
FONT_DESCENT 2
FONT_ASCENT 10
ENDPROPERTIES

CHARS 190

STARTCHAR space
ENCODING 32
SWIDTH 320 0
DWIDTH 3 0
BBX 1 1 0 0
BITMAP
00
ENDCHAR

STARTCHAR exclam
ENCODING 33
SWIDTH 300 0
DWIDTH 3 0
BBX 1 8 1 0
BITMAP
80
80
80
80
80
80
00
80
ENDCHAR

STARTCHAR quotedbl
ENCODING 34
SWIDTH 380 0
DWIDTH 4 0
BBX 3 2 0 6
BITMAP
A0
A0
ENDCHAR

STARTCHAR numbersign
ENCODING 35
SWIDTH 620 0
DWIDTH 6 0
BBX 5 8 1 0
BITMAP
50
50
F8
50
F8
50
50
50
ENDCHAR

STARTCHAR dollar
ENCODING 36
SWIDTH 620 0
DWIDTH 6 0
BBX 5 10 1 -1
BITMAP
20
70
A8
A0
F8
28
A8
A8
F0
20
ENDCHAR

STARTCHAR percent
ENCODING 37
SWIDTH 900 0
DWIDTH 9 0
BBX 9 8 0 0
BITMAP
6200
9400
9400
9B00
6C80
1480
1480
2300
ENDCHAR

STARTCHAR ampersand
ENCODING 38
SWIDTH 800 0
DWIDTH 8 0
BBX 8 8 0 0
BITMAP
38
48
4F
72
8A
84
CE
7B
ENDCHAR

STARTCHAR quoteright
ENCODING 39
SWIDTH 220 0
DWIDTH 2 0
BBX 1 2 1 6
BITMAP
80
80
ENDCHAR

STARTCHAR parenleft
ENCODING 40
SWIDTH 300 0
DWIDTH 3 0
BBX 2 9 1 -1
BITMAP
40
80
80
80
80
80
80
80
40
ENDCHAR

STARTCHAR parenright
ENCODING 41
SWIDTH 300 0
DWIDTH 3 0
BBX 2 9 0 -1
BITMAP
80
40
40
40
40
40
40
40
80
ENDCHAR

STARTCHAR asterisk
ENCODING 42
SWIDTH 440 0
DWIDTH 4 0
BBX 3 4 1 3
BITMAP
40
E0
40
A0
ENDCHAR

STARTCHAR plus
ENCODING 43
SWIDTH 600 0
DWIDTH 6 0
BBX 5 5 1 1
BITMAP
20
20
F8
20
20
ENDCHAR

STARTCHAR comma
ENCODING 44
SWIDTH 320 0
DWIDTH 3 0
BBX 1 2 1 -1
BITMAP
80
80
ENDCHAR

STARTCHAR minus
ENCODING 45
SWIDTH 600 0
DWIDTH 6 0
BBX 5 1 1 3
BITMAP
F8
ENDCHAR

STARTCHAR period
ENCODING 46
SWIDTH 320 0
DWIDTH 3 0
BBX 1 1 1 0
BITMAP
80
ENDCHAR

STARTCHAR slash
ENCODING 47
SWIDTH 600 0
DWIDTH 6 0
BBX 5 9 1 -1
BITMAP
18
10
10
20
20
40
40
C0
80
ENDCHAR

STARTCHAR zero
ENCODING 48
SWIDTH 620 0
DWIDTH 6 0
BBX 5 8 1 0
BITMAP
70
58
88
88
88
88
D8
70
ENDCHAR

STARTCHAR one
ENCODING 49
SWIDTH 620 0
DWIDTH 6 0
BBX 3 8 2 0
BITMAP
C0
40
40
40
40
40
40
E0
ENDCHAR

STARTCHAR two
ENCODING 50
SWIDTH 620 0
DWIDTH 6 0
BBX 5 8 1 0
BITMAP
70
88
88
08
10
30
C8
F8
ENDCHAR

STARTCHAR three
ENCODING 51
SWIDTH 620 0
DWIDTH 6 0
BBX 5 8 1 0
BITMAP
70
88
88
38
08
88
88
70
ENDCHAR

STARTCHAR four
ENCODING 52
SWIDTH 620 0
DWIDTH 6 0
BBX 5 8 1 0
BITMAP
10
30
70
50
D0
F8
10
38
ENDCHAR

STARTCHAR five
ENCODING 53
SWIDTH 620 0
DWIDTH 6 0
BBX 5 8 1 0
BITMAP
F0
80
F0
98
08
88
98
70
ENDCHAR

STARTCHAR six
ENCODING 54
SWIDTH 620 0
DWIDTH 6 0
BBX 5 8 1 0
BITMAP
70
48
80
F0
88
88
88
70
ENDCHAR

STARTCHAR seven
ENCODING 55
SWIDTH 620 0
DWIDTH 6 0
BBX 5 8 1 0
BITMAP
F8
98
10
20
20
40
40
40
ENDCHAR

STARTCHAR eight
ENCODING 56
SWIDTH 620 0
DWIDTH 6 0
BBX 6 8 0 0
BITMAP
78
84
84
F8
CC
84
84
78
ENDCHAR

STARTCHAR nine
ENCODING 57
SWIDTH 620 0
DWIDTH 6 0
BBX 5 8 1 0
BITMAP
70
88
88
88
78
08
90
70
ENDCHAR

STARTCHAR colon
ENCODING 58
SWIDTH 320 0
DWIDTH 3 0
BBX 1 6 1 0
BITMAP
80
00
00
00
00
80
ENDCHAR

STARTCHAR semicolon
ENCODING 59
SWIDTH 320 0
DWIDTH 3 0
BBX 1 7 1 -1
BITMAP
80
00
00
00
00
80
80
ENDCHAR

STARTCHAR less
ENCODING 60
SWIDTH 600 0
DWIDTH 6 0
BBX 5 5 1 0
BITMAP
18
70
80
70
18
ENDCHAR

STARTCHAR equal
ENCODING 61
SWIDTH 600 0
DWIDTH 6 0
BBX 5 3 1 3
BITMAP
F8
00
F8
ENDCHAR

STARTCHAR greater
ENCODING 62
SWIDTH 600 0
DWIDTH 6 0
BBX 5 5 1 0
BITMAP
C0
70
08
70
C0
ENDCHAR

STARTCHAR question
ENCODING 63
SWIDTH 540 0
DWIDTH 5 0
BBX 5 8 0 0
BITMAP
70
88
88
10
60
40
00
40
ENDCHAR

STARTCHAR at
ENCODING 64
SWIDTH 820 0
DWIDTH 8 0
BBX 8 8 0 0
BITMAP
3C
5E
B5
A5
AB
BF
62
3C
ENDCHAR

STARTCHAR A
ENCODING 65
SWIDTH 680 0
DWIDTH 7 0
BBX 8 8 0 0
BITMAP
10
18
28
28
3C
44
46
E7
ENDCHAR

STARTCHAR B
ENCODING 66
SWIDTH 740 0
DWIDTH 7 0
BBX 7 8 0 0
BITMAP
FC
42
42
7C
42
42
42
FC
ENDCHAR

STARTCHAR C
ENCODING 67
SWIDTH 740 0
DWIDTH 7 0
BBX 6 8 1 0
BITMAP
3C
44
84
80
80
80
44
38
ENDCHAR

STARTCHAR D
ENCODING 68
SWIDTH 800 0
DWIDTH 8 0
BBX 7 8 0 0
BITMAP
F8
44
42
42
42
42
44
F8
ENDCHAR

STARTCHAR E
ENCODING 69
SWIDTH 720 0
DWIDTH 7 0
BBX 7 8 0 0
BITMAP
FC
42
48
78
48
42
46
FC
ENDCHAR

STARTCHAR F
ENCODING 70
SWIDTH 640 0
DWIDTH 6 0
BBX 7 8 0 0
BITMAP
FC
42
48
78
48
40
40
E0
ENDCHAR

STARTCHAR G
ENCODING 71
SWIDTH 800 0
DWIDTH 8 0
BBX 7 8 1 0
BITMAP
3C
4C
84
80
8E
84
44
3C
ENDCHAR

STARTCHAR H
ENCODING 72
SWIDTH 800 0
DWIDTH 8 0
BBX 8 8 0 0
BITMAP
E7
42
42
7E
42
42
42
E7
ENDCHAR

STARTCHAR I
ENCODING 73
SWIDTH 340 0
DWIDTH 3 0
BBX 3 8 0 0
BITMAP
E0
40
40
40
40
40
40
E0
ENDCHAR

STARTCHAR J
ENCODING 74
SWIDTH 600 0
DWIDTH 6 0
BBX 6 8 0 0
BITMAP
1C
08
08
08
08
88
88
70
ENDCHAR

STARTCHAR K
ENCODING 75
SWIDTH 720 0
DWIDTH 7 0
BBX 7 8 0 0
BITMAP
EE
44
48
70
68
48
44
EE
ENDCHAR

STARTCHAR L
ENCODING 76
SWIDTH 600 0
DWIDTH 6 0
BBX 6 8 0 0
BITMAP
E0
40
40
40
40
44
4C
F8
ENDCHAR

STARTCHAR M
ENCODING 77
SWIDTH 920 0
DWIDTH 9 0
BBX 9 8 0 0
BITMAP
E380
6300
6300
5500
5500
5500
4900
EB80
ENDCHAR

STARTCHAR N
ENCODING 78
SWIDTH 740 0
DWIDTH 7 0
BBX 8 8 0 0
BITMAP
E7
62
52
5A
4A
46
46
E2
ENDCHAR

STARTCHAR O
ENCODING 79
SWIDTH 800 0
DWIDTH 8 0
BBX 7 8 1 0
BITMAP
38
44
82
82
82
82
44
38
ENDCHAR

STARTCHAR P
ENCODING 80
SWIDTH 620 0
DWIDTH 6 0
BBX 6 8 0 0
BITMAP
F8
44
44
78
40
40
40
E0
ENDCHAR

STARTCHAR Q
ENCODING 81
SWIDTH 820 0
DWIDTH 8 0
BBX 7 10 1 -2
BITMAP
38
44
82
82
82
82
BE
7A
46
3C
ENDCHAR

STARTCHAR R
ENCODING 82
SWIDTH 720 0
DWIDTH 7 0
BBX 7 8 0 0
BITMAP
F8
44
44
7C
58
48
4C
E6
ENDCHAR

STARTCHAR S
ENCODING 83
SWIDTH 660 0
DWIDTH 7 0
BBX 6 8 0 0
BITMAP
78
8C
84
70
0C
84
C4
78
ENDCHAR

STARTCHAR T
ENCODING 84
SWIDTH 620 0
DWIDTH 6 0
BBX 7 8 0 0
BITMAP
FE
92
10
10
10
10
10
38
ENDCHAR

STARTCHAR U
ENCODING 85
SWIDTH 780 0
DWIDTH 8 0
BBX 8 8 0 0
BITMAP
E7
42
42
42
42
42
42
3C
ENDCHAR

STARTCHAR V
ENCODING 86
SWIDTH 700 0
DWIDTH 7 0
BBX 8 8 0 0
BITMAP
E7
42
46
24
24
2C
18
18
ENDCHAR

STARTCHAR W
ENCODING 87
SWIDTH 960 0
DWIDTH 10 0
BBX 10 8 0 0
BITMAP
ECC0
44C0
4C80
6C80
2C80
2B00
3300
1300
ENDCHAR

STARTCHAR X
ENCODING 88
SWIDTH 720 0
DWIDTH 7 0
BBX 8 8 0 0
BITMAP
F7
26
34
18
28
24
46
E7
ENDCHAR

STARTCHAR Y
ENCODING 89
SWIDTH 640 0
DWIDTH 6 0
BBX 7 8 0 0
BITMAP
E6
44
24
38
18
10
10
38
ENDCHAR

STARTCHAR Z
ENCODING 90
SWIDTH 640 0
DWIDTH 6 0
BBX 6 8 0 0
BITMAP
7C
CC
88
10
20
64
CC
FC
ENDCHAR

STARTCHAR bracketleft
ENCODING 91
SWIDTH 300 0
DWIDTH 3 0
BBX 2 9 1 -1
BITMAP
C0
80
80
80
80
80
80
80
C0
ENDCHAR

STARTCHAR backslash
ENCODING 92
SWIDTH 600 0
DWIDTH 6 0
BBX 5 9 1 -1
BITMAP
80
40
40
40
20
20
10
10
18
ENDCHAR

STARTCHAR bracketright
ENCODING 93
SWIDTH 300 0
DWIDTH 3 0
BBX 2 9 0 -1
BITMAP
C0
40
40
40
40
40
40
40
C0
ENDCHAR

STARTCHAR asciicircum
ENCODING 94
SWIDTH 600 0
DWIDTH 6 0
BBX 5 4 1 4
BITMAP
20
50
50
88
ENDCHAR

STARTCHAR underscore
ENCODING 95
SWIDTH 500 0
DWIDTH 5 0
BBX 5 1 0 -1
BITMAP
F8
ENDCHAR

STARTCHAR quoteleft
ENCODING 96
SWIDTH 220 0
DWIDTH 2 0
BBX 1 2 1 6
BITMAP
80
80
ENDCHAR

STARTCHAR a
ENCODING 97
SWIDTH 580 0
DWIDTH 6 0
BBX 5 6 1 0
BITMAP
70
90
70
90
90
F8
ENDCHAR

STARTCHAR b
ENCODING 98
SWIDTH 620 0
DWIDTH 6 0
BBX 6 9 0 0
BITMAP
C0
40
40
78
44
44
44
44
78
ENDCHAR

STARTCHAR c
ENCODING 99
SWIDTH 520 0
DWIDTH 5 0
BBX 4 6 1 0
BITMAP
60
90
90
80
90
70
ENDCHAR

STARTCHAR d
ENCODING 100
SWIDTH 620 0
DWIDTH 6 0
BBX 6 9 0 0
BITMAP
18
08
08
78
88
88
88
88
7C
ENDCHAR

STARTCHAR e
ENCODING 101
SWIDTH 520 0
DWIDTH 5 0
BBX 4 6 1 0
BITMAP
60
90
F0
80
90
70
ENDCHAR

STARTCHAR f
ENCODING 102
SWIDTH 320 0
DWIDTH 3 0
BBX 4 9 0 0
BITMAP
30
40
40
E0
40
40
40
40
E0
ENDCHAR

STARTCHAR g
ENCODING 103
SWIDTH 540 0
DWIDTH 5 0
BBX 5 8 0 -2
BITMAP
78
90
90
70
F8
88
88
F0
ENDCHAR

STARTCHAR h
ENCODING 104
SWIDTH 660 0
DWIDTH 7 0
BBX 7 9 0 0
BITMAP
C0
40
40
7C
44
44
44
44
EE
ENDCHAR

STARTCHAR i
ENCODING 105
SWIDTH 300 0
DWIDTH 3 0
BBX 3 9 0 0
BITMAP
40
00
00
C0
40
40
40
40
E0
ENDCHAR

STARTCHAR j
ENCODING 106
SWIDTH 300 0
DWIDTH 3 0
BBX 3 11 0 -2
BITMAP
20
00
00
60
20
20
20
20
20
20
C0
ENDCHAR

STARTCHAR k
ENCODING 107
SWIDTH 620 0
DWIDTH 6 0
BBX 6 9 0 0
BITMAP
C0
40
40
4C
78
50
48
48
DC
ENDCHAR

STARTCHAR l
ENCODING 108
SWIDTH 300 0
DWIDTH 3 0
BBX 3 9 0 0
BITMAP
C0
40
40
40
40
40
40
40
E0
ENDCHAR

STARTCHAR m
ENCODING 109
SWIDTH 940 0
DWIDTH 9 0
BBX 9 6 0 0
BITMAP
FF00
4900
4900
4900
4900
FF80
ENDCHAR

STARTCHAR n
ENCODING 110
SWIDTH 660 0
DWIDTH 7 0
BBX 7 6 0 0
BITMAP
FC
44
44
44
44
EE
ENDCHAR

STARTCHAR o
ENCODING 111
SWIDTH 560 0
DWIDTH 6 0
BBX 5 6 0 0
BITMAP
70
88
88
88
88
70
ENDCHAR

STARTCHAR p
ENCODING 112
SWIDTH 620 0
DWIDTH 6 0
BBX 6 8 0 -2
BITMAP
F8
44
44
44
44
78
40
E0
ENDCHAR

STARTCHAR q
ENCODING 113
SWIDTH 580 0
DWIDTH 6 0
BBX 6 8 0 -2
BITMAP
78
C8
88
88
88
78
08
1C
ENDCHAR

STARTCHAR r
ENCODING 114
SWIDTH 440 0
DWIDTH 4 0
BBX 4 6 0 0
BITMAP
F0
40
40
40
40
E0
ENDCHAR

STARTCHAR s
ENCODING 115
SWIDTH 520 0
DWIDTH 5 0
BBX 5 6 0 0
BITMAP
78
80
E0
18
88
F0
ENDCHAR

STARTCHAR t
ENCODING 116
SWIDTH 380 0
DWIDTH 4 0
BBX 4 8 0 0
BITMAP
40
40
E0
40
40
40
50
60
ENDCHAR

STARTCHAR u
ENCODING 117
SWIDTH 680 0
DWIDTH 7 0
BBX 7 6 0 0
BITMAP
CC
44
44
44
4C
7E
ENDCHAR

STARTCHAR v
ENCODING 118
SWIDTH 520 0
DWIDTH 5 0
BBX 6 6 0 0
BITMAP
CC
48
48
70
30
30
ENDCHAR

STARTCHAR w
ENCODING 119
SWIDTH 780 0
DWIDTH 8 0
BBX 8 6 0 0
BITMAP
DB
49
5A
5A
36
26
ENDCHAR

STARTCHAR x
ENCODING 120
SWIDTH 560 0
DWIDTH 6 0
BBX 6 6 0 0
BITMAP
EC
68
30
30
58
DC
ENDCHAR

STARTCHAR y
ENCODING 121
SWIDTH 540 0
DWIDTH 5 0
BBX 6 8 0 -2
BITMAP
CC
48
48
28
30
20
20
C0
ENDCHAR

STARTCHAR z
ENCODING 122
SWIDTH 480 0
DWIDTH 5 0
BBX 4 6 0 0
BITMAP
F0
B0
20
40
D0
F0
ENDCHAR

STARTCHAR braceleft
ENCODING 123
SWIDTH 280 0
DWIDTH 3 0
BBX 3 9 0 -1
BITMAP
60
40
40
40
80
40
40
40
60
ENDCHAR

STARTCHAR bar
ENCODING 124
SWIDTH 600 0
DWIDTH 6 0
BBX 1 8 3 0
BITMAP
80
80
80
80
80
80
80
80
ENDCHAR

STARTCHAR braceright
ENCODING 125
SWIDTH 280 0
DWIDTH 3 0
BBX 3 9 0 -1
BITMAP
C0
40
40
40
20
40
40
40
C0
ENDCHAR

STARTCHAR asciitilde
ENCODING 126
SWIDTH 600 0
DWIDTH 6 0
BBX 5 2 1 1
BITMAP
68
B0
ENDCHAR

STARTCHAR exclamdown
ENCODING 161
SWIDTH 300 0
DWIDTH 3 0
BBX 1 8 1 -2
BITMAP
80
00
80
80
80
80
80
80
ENDCHAR

STARTCHAR cent
ENCODING 162
SWIDTH 620 0
DWIDTH 6 0
BBX 4 5 1 3
BITMAP
20
70
A0
70
20
ENDCHAR

STARTCHAR sterling
ENCODING 163
SWIDTH 620 0
DWIDTH 6 0
BBX 6 8 0 0
BITMAP
38
40
F0
40
20
6C
A4
D8
ENDCHAR

STARTCHAR currency
ENCODING 164
SWIDTH 620 0
DWIDTH 6 0
BBX 5 6 1 1
BITMAP
88
70
88
88
70
88
ENDCHAR

STARTCHAR yen
ENCODING 165
SWIDTH 620 0
DWIDTH 6 0
BBX 7 8 0 0
BITMAP
EE
2C
6C
10
7C
10
10
38
ENDCHAR

STARTCHAR brokenbar
ENCODING 166
SWIDTH 600 0
DWIDTH 6 0
BBX 1 8 3 0
BITMAP
80
80
80
00
80
80
80
80
ENDCHAR

STARTCHAR section
ENCODING 167
SWIDTH 520 0
DWIDTH 5 0
BBX 5 10 0 -2
BITMAP
70
88
80
70
88
88
70
08
88
70
ENDCHAR

STARTCHAR dieresis
ENCODING 168
SWIDTH 420 0
DWIDTH 4 0
BBX 3 1 1 7
BITMAP
A0
ENDCHAR

STARTCHAR copyright
ENCODING 169
SWIDTH 740 0
DWIDTH 7 0
BBX 8 8 0 0
BITMAP
3C
5E
A5
A1
A5
9D
42
3C
ENDCHAR

STARTCHAR ordfeminine
ENCODING 170
SWIDTH 420 0
DWIDTH 4 0
BBX 4 4 0 4
BITMAP
60
A0
F0
E0
ENDCHAR

STARTCHAR guillemotleft
ENCODING 171
SWIDTH 360 0
DWIDTH 4 0
BBX 3 3 0 1
BITMAP
60
C0
60
ENDCHAR

STARTCHAR logicalnot
ENCODING 172
SWIDTH 600 0
DWIDTH 6 0
BBX 5 3 1 1
BITMAP
F8
08
08
ENDCHAR

STARTCHAR hyphen
ENCODING 173
SWIDTH 400 0
DWIDTH 4 0
BBX 3 1 0 2
BITMAP
E0
ENDCHAR

STARTCHAR registered
ENCODING 174
SWIDTH 740 0
DWIDTH 7 0
BBX 7 8 0 0
BITMAP
38
7C
AA
B2
AA
AA
44
38
ENDCHAR

STARTCHAR macron
ENCODING 175
SWIDTH 440 0
DWIDTH 4 0
BBX 3 1 1 6
BITMAP
E0
ENDCHAR

STARTCHAR degree
ENCODING 176
SWIDTH 400 0
DWIDTH 4 0
BBX 4 3 0 5
BITMAP
60
90
60
ENDCHAR

STARTCHAR plusminus
ENCODING 177
SWIDTH 600 0
DWIDTH 6 0
BBX 5 7 1 0
BITMAP
20
20
F8
20
20
20
F8
ENDCHAR

STARTCHAR twosuperior
ENCODING 178
SWIDTH 372 0
DWIDTH 4 0
BBX 3 4 -3 4
BITMAP
E0
20
40
E0
ENDCHAR

STARTCHAR threesuperior
ENCODING 179
SWIDTH 372 0
DWIDTH 4 0
BBX 4 4 -3 4
BITMAP
F0
30
90
60
ENDCHAR

STARTCHAR acute
ENCODING 180
SWIDTH 340 0
DWIDTH 3 0
BBX 2 1 1 7
BITMAP
C0
ENDCHAR

STARTCHAR mu
ENCODING 181
SWIDTH 680 0
DWIDTH 7 0
BBX 7 8 0 -2
BITMAP
CC
44
44
44
44
7E
40
40
ENDCHAR

STARTCHAR paragraph
ENCODING 182
SWIDTH 600 0
DWIDTH 6 0
BBX 6 8 0 0
BITMAP
7C
A8
A8
68
28
28
28
7C
ENDCHAR

STARTCHAR periodcentered
ENCODING 183
SWIDTH 320 0
DWIDTH 5 0
BBX 1 1 2 3
BITMAP
80
ENDCHAR

STARTCHAR cedilla
ENCODING 184
SWIDTH 320 0
DWIDTH 3 0
BBX 2 2 1 -2
BITMAP
C0
C0
ENDCHAR

STARTCHAR onesuperior
ENCODING 185
SWIDTH 372 0
DWIDTH 4 0
BBX 3 4 -3 4
BITMAP
C0
40
40
E0
ENDCHAR

STARTCHAR ordmasculine
ENCODING 186
SWIDTH 420 0
DWIDTH 4 0
BBX 3 4 1 4
BITMAP
E0
A0
E0
E0
ENDCHAR

STARTCHAR guillemotright
ENCODING 187
SWIDTH 360 0
DWIDTH 4 0
BBX 3 3 0 1
BITMAP
C0
60
C0
ENDCHAR

STARTCHAR onequarter
ENCODING 188
SWIDTH 930 0
DWIDTH 9 0
BBX 8 8 3 0
BITMAP
C6
4C
48
5A
F6
2A
2F
42
ENDCHAR

STARTCHAR onehalf
ENCODING 189
SWIDTH 930 0
DWIDTH 9 0
BBX 8 8 3 0
BITMAP
C6
4C
48
5F
F1
22
24
47
ENDCHAR

STARTCHAR threequarters
ENCODING 190
SWIDTH 930 0
DWIDTH 9 0
BBX 9 8 4 0
BITMAP
E300
1600
6400
1D00
EB00
1500
1780
2100
ENDCHAR

STARTCHAR questiondown
ENCODING 191
SWIDTH 540 0
DWIDTH 5 0
BBX 5 8 0 -2
BITMAP
10
00
10
30
40
88
88
70
ENDCHAR

STARTCHAR Agrave
ENCODING 192
SWIDTH 680 0
DWIDTH 7 0
BBX 8 9 0 0
BITMAP
10
08
18
28
28
3C
44
46
E7
ENDCHAR

STARTCHAR Aacute
ENCODING 193
SWIDTH 680 0
DWIDTH 7 0
BBX 8 9 0 0
BITMAP
08
10
18
28
28
3C
44
46
E7
ENDCHAR

STARTCHAR Acircumflex
ENCODING 194
SWIDTH 680 0
DWIDTH 7 0
BBX 8 9 0 0
BITMAP
38
10
18
28
28
3C
44
46
E7
ENDCHAR

STARTCHAR Atilde
ENCODING 195
SWIDTH 680 0
DWIDTH 7 0
BBX 8 9 0 0
BITMAP
38
10
18
28
28
3C
44
46
E7
ENDCHAR

STARTCHAR Adieresis
ENCODING 196
SWIDTH 680 0
DWIDTH 7 0
BBX 8 9 0 0
BITMAP
28
10
18
28
28
3C
44
46
E7
ENDCHAR

STARTCHAR Aring
ENCODING 197
SWIDTH 680 0
DWIDTH 7 0
BBX 8 10 0 0
BITMAP
18
24
24
18
28
28
3C
44
46
E7
ENDCHAR

STARTCHAR AE
ENCODING 198
SWIDTH 1260 0
DWIDTH 13 0
BBX 13 8 0 0
BITMAP
03F0
0708
0520
0FE0
1120
2108
4118
E3F0
ENDCHAR

STARTCHAR Ccedilla
ENCODING 199
SWIDTH 740 0
DWIDTH 7 0
BBX 6 10 1 -2
BITMAP
3C
44
84
80
80
80
44
38
10
30
ENDCHAR

STARTCHAR Egrave
ENCODING 200
SWIDTH 720 0
DWIDTH 7 0
BBX 7 9 0 0
BITMAP
20
FC
42
48
78
48
42
46
FC
ENDCHAR

STARTCHAR Eacute
ENCODING 201
SWIDTH 720 0
DWIDTH 7 0
BBX 7 9 0 0
BITMAP
10
FC
42
48
78
48
42
46
FC
ENDCHAR

STARTCHAR Ecircumflex
ENCODING 202
SWIDTH 720 0
DWIDTH 7 0
BBX 7 9 0 0
BITMAP
10
FC
42
48
78
48
42
46
FC
ENDCHAR

STARTCHAR Edieresis
ENCODING 203
SWIDTH 720 0
DWIDTH 7 0
BBX 7 9 0 0
BITMAP
28
FC
42
48
78
48
42
46
FC
ENDCHAR

STARTCHAR Igrave
ENCODING 204
SWIDTH 340 0
DWIDTH 3 0
BBX 3 9 0 0
BITMAP
40
E0
40
40
40
40
40
40
E0
ENDCHAR

STARTCHAR Iacute
ENCODING 205
SWIDTH 340 0
DWIDTH 3 0
BBX 3 9 0 0
BITMAP
20
E0
40
40
40
40
40
40
E0
ENDCHAR

STARTCHAR Icircumflex
ENCODING 206
SWIDTH 340 0
DWIDTH 3 0
BBX 3 9 0 0
BITMAP
E0
E0
40
40
40
40
40
40
E0
ENDCHAR

STARTCHAR Idieresis
ENCODING 207
SWIDTH 340 0
DWIDTH 3 0
BBX 3 9 0 0
BITMAP
A0
E0
40
40
40
40
40
40
E0
ENDCHAR

STARTCHAR Eth
ENCODING 208
SWIDTH 800 0
DWIDTH 8 0
BBX 7 8 0 0
BITMAP
F8
44
42
F2
42
42
44
F8
ENDCHAR

STARTCHAR Ntilde
ENCODING 209
SWIDTH 740 0
DWIDTH 7 0
BBX 8 9 0 0
BITMAP
38
E7
62
52
5A
4A
46
46
E2
ENDCHAR

STARTCHAR Ograve
ENCODING 210
SWIDTH 800 0
DWIDTH 8 0
BBX 7 9 1 0
BITMAP
10
38
44
82
82
82
82
44
38
ENDCHAR

STARTCHAR Oacute
ENCODING 211
SWIDTH 800 0
DWIDTH 8 0
BBX 7 9 1 0
BITMAP
08
38
44
82
82
82
82
44
38
ENDCHAR

STARTCHAR Ocircumflex
ENCODING 212
SWIDTH 800 0
DWIDTH 8 0
BBX 7 9 1 0
BITMAP
38
38
44
82
82
82
82
44
38
ENDCHAR

STARTCHAR Otilde
ENCODING 213
SWIDTH 800 0
DWIDTH 8 0
BBX 7 9 1 0
BITMAP
38
38
44
82
82
82
82
44
38
ENDCHAR

STARTCHAR Odieresis
ENCODING 214
SWIDTH 800 0
DWIDTH 8 0
BBX 7 9 1 0
BITMAP
28
38
44
82
82
82
82
44
38
ENDCHAR

STARTCHAR multiply
ENCODING 215
SWIDTH 600 0
DWIDTH 6 0
BBX 5 5 1 1
BITMAP
88
50
20
50
88
ENDCHAR

STARTCHAR Oslash
ENCODING 216
SWIDTH 800 0
DWIDTH 8 0
BBX 7 8 1 0
BITMAP
3E
44
8A
92
B2
A2
44
B8
ENDCHAR

STARTCHAR Ugrave
ENCODING 217
SWIDTH 780 0
DWIDTH 8 0
BBX 8 9 0 0
BITMAP
18
E7
42
42
42
42
42
42
3C
ENDCHAR

STARTCHAR Uacute
ENCODING 218
SWIDTH 780 0
DWIDTH 8 0
BBX 8 9 0 0
BITMAP
18
E7
42
42
42
42
42
42
3C
ENDCHAR

STARTCHAR Ucircumflex
ENCODING 219
SWIDTH 780 0
DWIDTH 8 0
BBX 8 9 0 0
BITMAP
1C
E7
42
42
42
42
42
42
3C
ENDCHAR

STARTCHAR Udieresis
ENCODING 220
SWIDTH 780 0
DWIDTH 8 0
BBX 8 9 0 0
BITMAP
28
E7
42
42
42
42
42
42
3C
ENDCHAR

STARTCHAR Yacute
ENCODING 221
SWIDTH 640 0
DWIDTH 6 0
BBX 7 9 0 0
BITMAP
28
E6
44
24
38
18
10
10
38
ENDCHAR

STARTCHAR Thorn
ENCODING 222
SWIDTH 620 0
DWIDTH 6 0
BBX 6 8 0 0
BITMAP
E0
78
44
44
44
78
40
E0
ENDCHAR

STARTCHAR germandbls
ENCODING 223
SWIDTH 660 0
DWIDTH 7 0
BBX 7 10 0 -1
BITMAP
1C
22
22
6C
26
22
22
26
2C
C0
ENDCHAR

STARTCHAR agrave
ENCODING 224
SWIDTH 580 0
DWIDTH 6 0
BBX 5 7 1 0
BITMAP
40
70
90
70
90
90
F8
ENDCHAR

STARTCHAR aacute
ENCODING 225
SWIDTH 580 0
DWIDTH 6 0
BBX 5 7 1 0
BITMAP
20
70
90
70
90
90
F8
ENDCHAR

STARTCHAR acircumflex
ENCODING 226
SWIDTH 580 0
DWIDTH 6 0
BBX 5 7 1 0
BITMAP
70
70
90
70
90
90
F8
ENDCHAR

STARTCHAR atilde
ENCODING 227
SWIDTH 580 0
DWIDTH 6 0
BBX 5 7 1 0
BITMAP
70
70
90
70
90
90
F8
ENDCHAR

STARTCHAR adieresis
ENCODING 228
SWIDTH 580 0
DWIDTH 6 0
BBX 5 7 1 0
BITMAP
50
70
90
70
90
90
F8
ENDCHAR

STARTCHAR aring
ENCODING 229
SWIDTH 580 0
DWIDTH 6 0
BBX 5 8 1 0
BITMAP
70
50
70
90
70
90
90
F8
ENDCHAR

STARTCHAR ae
ENCODING 230
SWIDTH 860 0
DWIDTH 9 0
BBX 8 6 0 0
BITMAP
7E
91
7F
90
91
EE
ENDCHAR

STARTCHAR ccedilla
ENCODING 231
SWIDTH 520 0
DWIDTH 5 0
BBX 4 8 1 -2
BITMAP
60
90
90
80
90
70
60
60
ENDCHAR

STARTCHAR egrave
ENCODING 232
SWIDTH 520 0
DWIDTH 5 0
BBX 4 7 1 0
BITMAP
60
60
90
F0
80
90
70
ENDCHAR

STARTCHAR eacute
ENCODING 233
SWIDTH 520 0
DWIDTH 5 0
BBX 4 7 1 0
BITMAP
60
60
90
F0
80
90
70
ENDCHAR

STARTCHAR ecircumflex
ENCODING 234
SWIDTH 520 0
DWIDTH 5 0
BBX 4 7 1 0
BITMAP
E0
60
90
F0
80
90
70
ENDCHAR

STARTCHAR edieresis
ENCODING 235
SWIDTH 520 0
DWIDTH 5 0
BBX 4 7 1 0
BITMAP
A0
60
90
F0
80
90
70
ENDCHAR

STARTCHAR igrave
ENCODING 236
SWIDTH 300 0
DWIDTH 3 0
BBX 3 7 0 0
BITMAP
C0
C0
40
40
40
40
E0
ENDCHAR

STARTCHAR iacute
ENCODING 237
SWIDTH 300 0
DWIDTH 3 0
BBX 3 7 0 0
BITMAP
C0
C0
40
40
40
40
E0
ENDCHAR

STARTCHAR icircumflex
ENCODING 238
SWIDTH 300 0
DWIDTH 3 0
BBX 3 7 0 0
BITMAP
E0
C0
40
40
40
40
E0
ENDCHAR

STARTCHAR idieresis
ENCODING 239
SWIDTH 300 0
DWIDTH 3 0
BBX 3 7 0 0
BITMAP
A0
C0
40
40
40
40
E0
ENDCHAR

STARTCHAR eth
ENCODING 240
SWIDTH 560 0
DWIDTH 6 0
BBX 5 9 0 0
BITMAP
20
E0
B0
78
88
88
88
88
70
ENDCHAR

STARTCHAR ntilde
ENCODING 241
SWIDTH 660 0
DWIDTH 7 0
BBX 7 7 0 0
BITMAP
38
FC
44
44
44
44
EE
ENDCHAR

STARTCHAR ograve
ENCODING 242
SWIDTH 560 0
DWIDTH 6 0
BBX 5 7 0 0
BITMAP
20
70
88
88
88
88
70
ENDCHAR

STARTCHAR oacute
ENCODING 243
SWIDTH 560 0
DWIDTH 6 0
BBX 5 7 0 0
BITMAP
10
70
88
88
88
88
70
ENDCHAR

STARTCHAR ocircumflex
ENCODING 244
SWIDTH 560 0
DWIDTH 6 0
BBX 5 7 0 0
BITMAP
70
70
88
88
88
88
70
ENDCHAR

STARTCHAR otilde
ENCODING 245
SWIDTH 560 0
DWIDTH 6 0
BBX 5 7 0 0
BITMAP
70
70
88
88
88
88
70
ENDCHAR

STARTCHAR odieresis
ENCODING 246
SWIDTH 560 0
DWIDTH 6 0
BBX 5 7 0 0
BITMAP
50
70
88
88
88
88
70
ENDCHAR

STARTCHAR divide
ENCODING 247
SWIDTH 600 0
DWIDTH 6 0
BBX 5 5 1 1
BITMAP
20
00
F8
00
20
ENDCHAR

STARTCHAR oslash
ENCODING 248
SWIDTH 560 0
DWIDTH 6 0
BBX 5 6 0 0
BITMAP
78
98
98
A8
A8
70
ENDCHAR

STARTCHAR ugrave
ENCODING 249
SWIDTH 680 0
DWIDTH 7 0
BBX 7 7 0 0
BITMAP
18
CC
44
44
44
4C
7E
ENDCHAR

STARTCHAR uacute
ENCODING 250
SWIDTH 680 0
DWIDTH 7 0
BBX 7 7 0 0
BITMAP
18
CC
44
44
44
4C
7E
ENDCHAR

STARTCHAR ucircumflex
ENCODING 251
SWIDTH 680 0
DWIDTH 7 0
BBX 7 7 0 0
BITMAP
38
CC
44
44
44
4C
7E
ENDCHAR

STARTCHAR udieresis
ENCODING 252
SWIDTH 680 0
DWIDTH 7 0
BBX 7 7 0 0
BITMAP
28
CC
44
44
44
4C
7E
ENDCHAR

STARTCHAR yacute
ENCODING 253
SWIDTH 540 0
DWIDTH 5 0
BBX 6 9 0 -2
BITMAP
30
CC
48
48
28
30
20
20
C0
ENDCHAR

STARTCHAR thorn
ENCODING 254
SWIDTH 620 0
DWIDTH 6 0
BBX 6 10 0 -2
BITMAP
C0
40
78
44
44
44
44
78
40
E0
ENDCHAR

STARTCHAR ydieresis
ENCODING 255
SWIDTH 540 0
DWIDTH 5 0
BBX 6 9 0 -2
BITMAP
50
CC
48
48
28
30
20
20
C0
ENDCHAR
ENDFONT
